<svg id="Capa_1" data-name="Capa 1" xmlns="http://www.w3.org/2000/svg" viewBox="0 0 150 150"><defs><style>.cls-1{fill:none;}.cls-2,.cls-3{fill:#fff;}.cls-2{opacity:0.34;}.cls-4,.cls-5,.cls-6,.cls-7{fill:#fefefe;}.cls-4{opacity:0.56;}.cls-5{opacity:0.62;}.cls-6{opacity:0.54;}.cls-7{opacity:0.71;}.cls-8{fill:#fcfcfc;}</style></defs><title>Mesa de trabajo 1</title><path class="cls-1" d="M65.55,25a2,2,0,0,0,1.35-2.36c-.09-.68-.93-1.4-.36-1.94s1.34-.38,2-.57a19.5,19.5,0,0,1,2.75-.47,6,6,0,0,1-.09-1c0-.68-.24-.82-.84-.72a47.93,47.93,0,0,0-4.78.73c-.7.19-1.61.14-2.06.57s.28,1.28.36,2a2.06,2.06,0,0,1-1,2.21,5.1,5.1,0,0,0,.26.58A2,2,0,0,0,65.55,25Z"/><path class="cls-1" d="M86.68,25a2.06,2.06,0,0,0,2.54-1c.35-.56.13-1.63,1-1.67a1.07,1.07,0,0,1,.39.07,11.74,11.74,0,0,0-1.27-.66c-.62-.28-1.24-.89-1.83-.85-.84,0-.62,1.11-1,1.69a2.5,2.5,0,0,1-1.07,1A1.92,1.92,0,0,0,86.68,25Z"/><path class="cls-1" d="M76.11,23.07c1.36,0,2-.87,2.08-3,0-.57.13-.76.74-.69,1.38.15,2.75.35,4.11.61a.08.08,0,0,1,0,0c.22-.51.23-.74-.43-.91a48.63,48.63,0,0,0-6.54-1.14c-.61-.07-.73.12-.75.7,0,1.52-.4,2.4-1.08,2.79A1.81,1.81,0,0,0,76.11,23.07Z"/><path class="cls-1" d="M56.38,30.24a2.08,2.08,0,0,0,.27-2.72c-.32-.5-1.14-.88-.91-1.48s.93-.68,1.41-1a25.8,25.8,0,0,1,3.33-1.94,2.26,2.26,0,0,1-.38-.51,5.41,5.41,0,0,1-.43-1.12c-.19-.68-.49-.74-1.11-.41a39.27,39.27,0,0,0-4.5,2.57c-.49.36-1.25.58-1.43,1.05s.6,1,.92,1.5a2.08,2.08,0,0,1-.28,2.75,1.77,1.77,0,0,1-.53.34,12.3,12.3,0,0,0,.83.92A2,2,0,0,0,56.38,30.24Z"/><path class="cls-1" d="M108.27,50.19c-.1-1.2-.27-1.26-1.55-1.12A2,2,0,0,0,108.27,50.19Z"/><path class="cls-1" d="M107.27,61.24s0,0,0,0a.56.56,0,0,0-.49-.42A1.93,1.93,0,0,0,107.27,61.24Z"/><path class="cls-1" d="M98.6,30.26l.18-.16a3,3,0,0,0,.53-.67c-.18-.19-.35-.39-.55-.58-.46-.45-.85-1.19-1.37-1.29s-.75.82-1.22,1.19l-.18.16a2.41,2.41,0,0,1-.65.35,2,2,0,0,0,.63,1A2,2,0,0,0,98.6,30.26Z"/><path class="cls-1" d="M104.66,68.35l-.37,0A.37.37,0,0,0,104.66,68.35Z"/><path class="cls-1" d="M41.63,50.64c.07-.62.27-.74.81-.61a7.76,7.76,0,0,0,1.05.2,2.06,2.06,0,0,0,2.24-1.57,2,2,0,0,0-1.45-2.41c-.59-.2-1.52.06-1.71-.61s.35-1.19.49-1.81a37.13,37.13,0,0,1,1.76-4.68c.25-.68.56-.73,1.1-.34a4.87,4.87,0,0,0,.95.52,2,2,0,0,0,2.59-.83,2,2,0,0,0-.61-2.65c-.51-.38-1.07-.68-1.6-1a34.93,34.93,0,0,1,4.49-5.43,2.15,2.15,0,0,1-1.3-.61c-.44-.42-.81-.9-1.23-1.38A35.65,35.65,0,0,0,44,33.54c.55.34,1.12.64,1.63,1a2,2,0,0,1-2,3.52,4.87,4.87,0,0,1-.95-.52c-.55-.4-.87-.34-1.12.34a38.07,38.07,0,0,0-1.78,4.74c-.15.62-.64,1.3-.5,1.82.19.68,1.14.42,1.73.62a2.06,2.06,0,0,1-.79,4,7.76,7.76,0,0,1-1.07-.2c-.54-.13-.75,0-.82.62a33.74,33.74,0,0,0-.12,5.32,3.55,3.55,0,0,0,.3,1.86c.35.45,1.09-.18,1.68-.11a2.32,2.32,0,0,0,.37,0,2.16,2.16,0,0,1,1,.24c0-.31,0-.64,0-.93A33,33,0,0,1,41.63,50.64Z"/><path class="cls-1" d="M105.51,39.31l0,0c0-.06,0-.13-.08-.2-.28-.58-.39-1.41-.84-1.69s-1.08.45-1.66.67a2.46,2.46,0,0,1-.29.09,2.12,2.12,0,0,0,.14.31A2.06,2.06,0,0,0,105.51,39.31Z"/><path class="cls-1" d="M43.21,61.78a6.94,6.94,0,0,0,1.28-.27,1.92,1.92,0,0,0,1.35-2.23,1.94,1.94,0,0,0-2-1.66c-.12,0-.24,0-.36,0a2.76,2.76,0,0,0-1,.21,1.88,1.88,0,0,1,.14.42,1.94,1.94,0,0,1-1.36,2.26,9.07,9.07,0,0,1-1.3.27c-.53.09-.83.21-.59.92a42.94,42.94,0,0,0,1.75,5c.27.58.54,1.16.82,1.74.53-.27,1-.55,1.6-.8a2.61,2.61,0,0,1,.75-.2,47.2,47.2,0,0,1-1.66-4.77C42.39,62,42.68,61.88,43.21,61.78Z"/><path class="cls-1" d="M96.05,74.2A10.21,10.21,0,0,0,88,66.35l-.15,0a10.35,10.35,0,0,1,5.61,7c.68,2.49.42,5,.53,7.78.92-.67,1.78-1.38,2.6-2.1A18.56,18.56,0,0,0,96.05,74.2Z"/><path class="cls-1" d="M80.93,62.43a10.85,10.85,0,0,1,3,2.26,2.34,2.34,0,0,0,1.33.73,12.64,12.64,0,0,1,1.86.58,2.47,2.47,0,0,1-.44-.37A10.32,10.32,0,0,0,80.93,62.43Z"/><path class="cls-1" d="M48.8,75.19c-.1-.12-.2-.25-.29-.38-.39-.55-1.08-1.08-1.11-1.65s1-.74,1.47-1.15a2.07,2.07,0,0,0,.58-2.67,2,2,0,0,0-2.7-.77l-.35.17a2.12,2.12,0,0,1-.72,2.41c-.5.42-1.52.48-1.49,1.16s.72,1.11,1.12,1.67l.29.39a34.17,34.17,0,0,0,7,6.77c0-.7,0-1.21,0-1.71v-.09A35.83,35.83,0,0,1,48.8,75.19Z"/><path class="cls-2" d="M96.05,74.2A18.56,18.56,0,0,1,96.54,79a34.12,34.12,0,0,0,4.74-5.11c.39-.52,1-1,1.07-1.58.08-.77-.94-.75-1.42-1.16a2.11,2.11,0,0,1-.61-2.79,2.09,2.09,0,0,1,2.66-.77,5.4,5.4,0,0,1,1,.6,1,1,0,0,0,.27.14l.37,0a1,1,0,0,0,.3-.46,38.07,38.07,0,0,0,1.78-4.74c.16-.65.65-1.35.53-1.91a1.93,1.93,0,0,1-.49-.45,5.18,5.18,0,0,1-1.3-.2l-.11,0A2,2,0,0,1,106,56.6a6.24,6.24,0,0,1,1.43.2c.54.14.67,0,.73-.56a29.14,29.14,0,0,0,.12-5.68c0-.14,0-.25,0-.37a2,2,0,0,1-1.55-1.12l-.2,0a2.12,2.12,0,0,1-2.47-1.62A2.07,2.07,0,0,1,105.81,45c.51-.12,1-.2,1.56-.31a38.85,38.85,0,0,0-1.81-5.43l0,0a2.06,2.06,0,0,1-2.68-.85,2.12,2.12,0,0,1-.14-.31,2,2,0,0,1-1.76-3.62,5.75,5.75,0,0,1,1-.62c.58-.25.52-.5.18-.95-.92-1.2-1.8-2.42-2.83-3.53a3,3,0,0,1-.53.67l-.18.16a2,2,0,0,1-2.63,0,2,2,0,0,1-.63-1,2,2,0,0,1-2-.35A2,2,0,0,1,93,26.28a5.81,5.81,0,0,1,.81-1c.39-.39.33-.62-.13-.9-1-.65-2-1.36-3.06-2a1.07,1.07,0,0,0-.39-.07c-.83,0-.61,1.11-1,1.67a2.06,2.06,0,0,1-2.54,1,1.92,1.92,0,0,1-1.25-1.45,1.86,1.86,0,0,1-1.5,0,2,2,0,0,1-1.24-2.44A5.41,5.41,0,0,1,83,20c-1.36-.26-2.73-.46-4.11-.61-.61-.07-.73.12-.74.69-.07,2.12-.72,3-2.08,3a1.81,1.81,0,0,1-1.85-1.67,2,2,0,0,1-1,.23c-1.09,0-1.71-.63-1.92-2a19.5,19.5,0,0,0-2.75.47c-.69.19-1.59.14-2,.57s.27,1.26.36,1.94A2,2,0,0,1,65.55,25a2,2,0,0,1-2.42-1,5.1,5.1,0,0,1-.26-.58,2,2,0,0,1-.32.18,1.93,1.93,0,0,1-2.07-.52A25.8,25.8,0,0,0,57.15,25c-.48.36-1.23.58-1.41,1s.59,1,.91,1.48a2.08,2.08,0,0,1-.27,2.72,2,2,0,0,1-2.81-.09,12.3,12.3,0,0,1-.83-.92,1.94,1.94,0,0,1-1,.18,34.93,34.93,0,0,0-4.49,5.43c.53.33,1.09.63,1.6,1a2,2,0,0,1,.61,2.65,2,2,0,0,1-2.59.83,4.87,4.87,0,0,1-.95-.52c-.54-.39-.85-.34-1.1.34a37.13,37.13,0,0,0-1.76,4.68c-.14.62-.63,1.29-.49,1.81s1.12.41,1.71.61a2,2,0,0,1,1.45,2.41,2.06,2.06,0,0,1-2.24,1.57,7.76,7.76,0,0,1-1.05-.2c-.54-.13-.74,0-.81.61a33,33,0,0,0-.12,5.26c0,.29,0,.62,0,.93a1.86,1.86,0,0,1,.93,1,2.76,2.76,0,0,1,1-.21c.12,0,.24,0,.36,0a1.94,1.94,0,0,1,2,1.66,1.92,1.92,0,0,1-1.35,2.23,6.94,6.94,0,0,1-1.28.27c-.53.1-.82.21-.59.91a47.2,47.2,0,0,0,1.66,4.77,2,2,0,0,1,2,1,2.55,2.55,0,0,1,.13.29l.35-.17a2,2,0,0,1,2.7.77A2.07,2.07,0,0,1,48.87,72c-.5.41-1.5.48-1.47,1.15s.72,1.1,1.11,1.65c.09.13.19.26.29.38a35.83,35.83,0,0,0,3.84,4.15A15.44,15.44,0,0,1,55.77,69c2.74-3.88,6.11-6.89,11-7.68,2.92-.47,5.88-.11,8.82-.12a11.53,11.53,0,0,1,5.37,1.22,10.32,10.32,0,0,1,5.71,3.2,2.47,2.47,0,0,0,.44.37c.25.1.49.2.72.31l.15,0A10.21,10.21,0,0,1,96.05,74.2Z"/><path class="cls-3" d="M111.87,46.29C109.5,30.5,97,17.84,81.43,14.49c-1.74-.37-6.48-.87-6.74-.84H72.87c-.17,0-3.2.11-3.45.13a38.67,38.67,0,0,0-16,5.32c-10.7,6.55-17.22,16-18.88,28.5C32.69,61.3,37.22,72.82,47.3,82.19a54.57,54.57,0,0,0,5.38,4.07c-2.59,1.62-3.5,2.92-4,5.82a13,13,0,0,0-.12,2.65,7.69,7.69,0,0,0,6,7.37,1.54,1.54,0,0,1,1.2,1,46,46,0,0,1,2.92,8.43,6.8,6.8,0,0,0,3,4.23q4.49,3,8.95,6a4.41,4.41,0,0,0,5.3,0q4.47-3,8.95-6a6.73,6.73,0,0,0,3-4.22,47.49,47.49,0,0,1,2.77-8.1A2.31,2.31,0,0,1,92.3,102,7.56,7.56,0,0,0,98,94.26c0-3.35-.86-6.28-4.2-8,.47-.33.84-.57,1.19-.83C108.5,75.77,114.34,62.66,111.87,46.29Zm-22.18,52a2.39,2.39,0,0,0-2,1.58A52.35,52.35,0,0,0,84,110.15a3.8,3.8,0,0,1-1.69,2.39q-4.15,2.7-8.24,5.5a1.14,1.14,0,0,1-1.5,0q-4.14-2.82-8.34-5.57a3.45,3.45,0,0,1-1.56-2.19,53,53,0,0,0-3.81-10.41,2.38,2.38,0,0,0-1.94-1.58c-3.31-.39-4.44-1.81-4.18-5.18.14-1.92.69-2.64,2.5-3.2,1.29-.39,1.58-1.37,1.58-2.54v-9c0-7,6.3-13.24,13.25-13.15,2.26,0,4.52.08,6.77.18a6.4,6.4,0,0,1,4.43,2.45,5.15,5.15,0,0,0,3.24,1.62c3,.41,5.11,3.29,5.26,6.92.08,1.85,0,3.71,0,5.56h0c0,1.82,0,3.64,0,5.45,0,1.52.46,2.17,1.89,2.54a2.51,2.51,0,0,1,2,2C94.46,95.52,93.6,97.88,89.69,98.29Zm3.72-24.93a10.35,10.35,0,0,0-5.61-7,2.57,2.57,0,0,1-.72-.31,12.64,12.64,0,0,0-1.86-.58,2.34,2.34,0,0,1-1.33-.73,10.85,10.85,0,0,0-3-2.26,13,13,0,0,0-2.52-.24c-2.91,0-5.84-.35-8.72.12-4.8.78-8.13,3.75-10.84,7.59a15.13,15.13,0,0,0-3.09,10.29c0,.5,0,1,0,1.7a31.69,31.69,0,0,1-3.12-2.55v.09c0,.5,0,1,0,1.71a34.17,34.17,0,0,1-7-6.77L45.31,74c-.4-.56-1.09-1.1-1.12-1.67s1-.74,1.49-1.16a2.12,2.12,0,0,0,.72-2.41l-1.24.61c-.27-.57-.53-1.14-.81-1.72,0,0,0-.11-.07-.17a2.61,2.61,0,0,0-.75.2c-.55.25-1.07.53-1.6.8-.28-.58-.55-1.16-.82-1.74a42.94,42.94,0,0,1-1.75-5c-.24-.71.06-.83.59-.92a9.07,9.07,0,0,0,1.3-.27,1.94,1.94,0,0,0,1.36-2.26,1.88,1.88,0,0,0-.14-.42c-.27.07-.51.09-.67-.11a1.63,1.63,0,0,1-.26-.91,2.16,2.16,0,0,0-1-.24,2.32,2.32,0,0,1-.37,0c-.59-.07-1.33.56-1.68.11a3.55,3.55,0,0,1-.3-1.86,33.74,33.74,0,0,1,.12-5.32c.07-.63.28-.75.82-.62a7.76,7.76,0,0,0,1.07.2,2.06,2.06,0,0,0,.79-4c-.59-.2-1.54.06-1.73-.62-.14-.52.35-1.2.5-1.82a38.07,38.07,0,0,1,1.78-4.74c.25-.68.57-.74,1.12-.34a4.87,4.87,0,0,0,.95.52,2,2,0,0,0,2-3.52c-.51-.38-1.08-.68-1.63-1a35.65,35.65,0,0,1,5.18-6.12c.42.48.79,1,1.23,1.38a2.15,2.15,0,0,0,1.3.61c.21-.2.41-.42.62-.62l.38.44a1.77,1.77,0,0,0,.53-.34,2.08,2.08,0,0,0,.28-2.75c-.32-.51-1.16-.9-.92-1.5s.94-.69,1.43-1.05A39.27,39.27,0,0,1,58.56,21c.62-.33.92-.27,1.11.41a5.41,5.41,0,0,0,.43,1.12,2.26,2.26,0,0,0,.38.51l1.13-.59c.61-.33.91-.27,1.09.4,0,.18.11.36.17.53a2.06,2.06,0,0,0,1-2.21c-.08-.69-.93-1.41-.36-2s1.36-.38,2.06-.57a47.93,47.93,0,0,1,4.78-.73c.6-.1.82,0,.84.72a6,6,0,0,0,.09,1c.66-.08,1.32-.15,2-.25s.82,0,.83.71a6.69,6.69,0,0,0,.14,1.29c.68-.39,1-1.27,1.08-2.79,0-.58.14-.77.75-.7a48.63,48.63,0,0,1,6.54,1.14c.66.17.65.4.43.91a.08.08,0,0,0,0,0c.79.15,1.57.32,2.35.52s.65.39.43.89a5.63,5.63,0,0,0-.37,1.14,2.23,2.23,0,0,0,0,1,2.5,2.5,0,0,0,1.07-1c.35-.58.13-1.65,1-1.69.59,0,1.21.57,1.83.85a11.74,11.74,0,0,1,1.27.66c.47.16.94.56,1.42.77a36.41,36.41,0,0,1,4.28,2.6c.46.29.51.5.13.89a5.34,5.34,0,0,0-.8,1,2,2,0,0,0-.26,1.59,2.41,2.41,0,0,0,.65-.35l.18-.16c.47-.37.73-1.29,1.22-1.19s.91.84,1.37,1.29c.2.19.37.39.55.58.2-.3.4-.56.67-.5.52.1.91.83,1.36,1.28a35,35,0,0,1,3.34,4c.34.45.39.69-.18.94a5.82,5.82,0,0,0-1,.62,2,2,0,0,0-.8,2.33,2.46,2.46,0,0,0,.29-.09c.58-.22,1.13-1,1.66-.67s.56,1.11.84,1.69c0,.07,0,.14.08.2.56-.24,1.08-1,1.59-.64s.55,1.1.83,1.67a36.8,36.8,0,0,1,1.87,5.57c-.53.11-1,.19-1.54.31a2.05,2.05,0,0,0-1.75,2.43,1.72,1.72,0,0,0,.16.45c1.28-.14,1.45-.08,1.55,1.12a2.54,2.54,0,0,0,.73,0c1.61-.18,1.65-.19,1.77,1.46a28.44,28.44,0,0,1-.11,5.61c-.06.52-.19.69-.72.55a6.75,6.75,0,0,0-1.41-.2,1.92,1.92,0,0,0-2.08,1.72,2.06,2.06,0,0,0,.33,1.44.56.56,0,0,1,.49.42s0,0,0,0a2.4,2.4,0,0,0,.6.3l.11,0c.58.3,1.58-.1,1.77.61.14.55-.37,1.26-.52,1.92a37.18,37.18,0,0,1-1.77,4.68c-.19.51-.4.72-.92.34a4.58,4.58,0,0,0-1-.59,2.18,2.18,0,0,0-.85-.19.37.37,0,0,1-.37,0,2,2,0,0,0-1.41.93,2.07,2.07,0,0,0,.6,2.75c.48.41,1.49.39,1.41,1.15-.06.55-.67,1-1.06,1.56a33.67,33.67,0,0,1-7.26,7.13c0-1,0-1.92,0-2.85-.82.72-1.68,1.43-2.6,2.1C93.83,78.4,94.09,75.85,93.41,73.36Z"/><path class="cls-3" d="M105.81,45a2.07,2.07,0,0,0-1.76,2.46,2.12,2.12,0,0,0,2.47,1.62l.2,0a1.72,1.72,0,0,1-.16-.45,2.05,2.05,0,0,1,1.75-2.43c.5-.12,1-.2,1.54-.31A36.8,36.8,0,0,0,108,40.31c-.28-.57-.38-1.39-.83-1.67s-1,.4-1.59.64a38.85,38.85,0,0,1,1.81,5.43C106.83,44.82,106.32,44.9,105.81,45Z"/><path class="cls-3" d="M87.8,66.31c-.23-.11-.47-.21-.72-.31A2.57,2.57,0,0,0,87.8,66.31Z"/><path class="cls-3" d="M108.19,56.24c-.06.53-.19.7-.73.56a6.24,6.24,0,0,0-1.43-.2,2,2,0,0,0-.66,3.95l.11,0a5.18,5.18,0,0,0,1.3.2,2.06,2.06,0,0,1-.33-1.44,1.92,1.92,0,0,1,2.08-1.72,6.75,6.75,0,0,1,1.41.2c.53.14.66,0,.72-.55a28.44,28.44,0,0,0,.11-5.61c-.12-1.65-.16-1.64-1.77-1.46a2.54,2.54,0,0,1-.73,0c0,.12,0,.23,0,.37A29.14,29.14,0,0,1,108.19,56.24Z"/><path class="cls-3" d="M103,67.63a2.09,2.09,0,0,0-2.66.77,2.11,2.11,0,0,0,.61,2.79c.48.41,1.5.39,1.42,1.16-.06.56-.68,1.06-1.07,1.58A34.12,34.12,0,0,1,96.54,79c0,.93,0,1.88,0,2.85a33.67,33.67,0,0,0,7.26-7.13c.39-.51,1-1,1.06-1.56.08-.76-.93-.74-1.41-1.15a2.07,2.07,0,0,1-.6-2.75,2,2,0,0,1,1.41-.93,1,1,0,0,1-.27-.14A5.4,5.4,0,0,0,103,67.63Z"/><path class="cls-3" d="M106.74,63.15A38.07,38.07,0,0,1,105,67.89a1,1,0,0,1-.3.46,2.18,2.18,0,0,1,.85.19,4.58,4.58,0,0,1,1,.59c.52.38.73.17.92-.34a37.18,37.18,0,0,0,1.77-4.68c.15-.66.66-1.37.52-1.92-.19-.71-1.19-.31-1.77-.61l-.11,0a2.4,2.4,0,0,1-.6-.3C107.39,61.8,106.9,62.5,106.74,63.15Z"/><path class="cls-3" d="M44.28,67.46c0,.06,0,.12.07.17.28.58.54,1.15.81,1.72l1.24-.61a2.55,2.55,0,0,0-.13-.29A2,2,0,0,0,44.28,67.46Z"/><path class="cls-3" d="M62.55,23.58a2,2,0,0,0,.32-.18c-.06-.17-.12-.35-.17-.53-.18-.67-.48-.73-1.09-.4l-1.13.59A1.93,1.93,0,0,0,62.55,23.58Z"/><path class="cls-3" d="M102,33.91a5.75,5.75,0,0,0-1,.62,2,2,0,0,0,1.76,3.62,2,2,0,0,1,.8-2.33,5.82,5.82,0,0,1,1-.62c.57-.25.52-.49.18-.94a35,35,0,0,0-3.34-4c-.45-.45-.84-1.18-1.36-1.28-.27-.06-.47.2-.67.5,1,1.11,1.91,2.33,2.83,3.53C102.48,33.41,102.54,33.66,102,33.91Z"/><path class="cls-3" d="M73.24,21.63a2,2,0,0,0,1-.23,6.69,6.69,0,0,1-.14-1.29c0-.67-.23-.8-.83-.71s-1.31.17-2,.25C71.53,21,72.15,21.61,73.24,21.63Z"/><path class="cls-3" d="M41.54,56.83a1.63,1.63,0,0,0,.26.91c.16.2.4.18.67.11A1.86,1.86,0,0,0,41.54,56.83Z"/><path class="cls-3" d="M52.74,29.23l-.38-.44c-.21.2-.41.42-.62.62A1.94,1.94,0,0,0,52.74,29.23Z"/><path class="cls-3" d="M93.76,25.24a5.81,5.81,0,0,0-.81,1,2,2,0,0,0,.38,2.63,2,2,0,0,0,2,.35,2,2,0,0,1,.26-1.59,5.34,5.34,0,0,1,.8-1c.38-.39.33-.6-.13-.89A36.41,36.41,0,0,0,92,23.14c-.48-.21-.95-.61-1.42-.77,1.05.61,2,1.32,3.06,2C94.09,24.62,94.15,24.85,93.76,25.24Z"/><path class="cls-3" d="M83.93,23.54a1.86,1.86,0,0,0,1.5,0,2.23,2.23,0,0,1,0-1,5.63,5.63,0,0,1,.37-1.14c.22-.5.22-.73-.43-.89S83.83,20.15,83,20a5.41,5.41,0,0,0-.35,1.1A2,2,0,0,0,83.93,23.54Z"/><path class="cls-3" d="M66.74,61.33c-4.86.79-8.23,3.8-11,7.68a15.44,15.44,0,0,0-3.13,10.33,31.69,31.69,0,0,0,3.12,2.55c0-.69,0-1.2,0-1.7A15.13,15.13,0,0,1,58.85,69.9c2.71-3.84,6-6.81,10.84-7.59,2.88-.47,5.81-.11,8.72-.12a13,13,0,0,1,2.52.24,11.53,11.53,0,0,0-5.37-1.22C72.62,61.22,69.66,60.86,66.74,61.33Z"/><path class="cls-4" d="M94.4,90c-1.47-.38-1.92-1-1.94-2.6,0-1.85,0-3.71,0-5.57h0c0-1.9.06-3.8,0-5.7-.16-3.71-2.36-6.66-5.38-7.08a5.2,5.2,0,0,1-3.32-1.66,6.54,6.54,0,0,0-4.53-2.5q-3.47-.15-6.93-.19C65.14,64.61,58.7,71,58.69,78.16c0,3.06,0,6.11,0,9.17,0,1.2-.3,2.2-1.62,2.6-1.85.58-2.41,1.31-2.56,3.28-.27,3.45.9,4.89,4.28,5.29a2.47,2.47,0,0,1,2,1.63,54.55,54.55,0,0,1,3.89,10.65,3.55,3.55,0,0,0,1.6,2.24q4.29,2.81,8.54,5.7a1.16,1.16,0,0,0,1.53,0q4.18-2.85,8.43-5.63a3.87,3.87,0,0,0,1.73-2.43,54,54,0,0,1,3.86-10.53,2.46,2.46,0,0,1,2-1.62c4-.41,4.89-2.83,4.06-6.42A2.58,2.58,0,0,0,94.4,90Z"/><path class="cls-3" d="M135.27,101.43a6.14,6.14,0,0,0-3.75-4.22c-.46-.17-.4-.53-.4-.89,0-1.33,0-2.67,0-4-.08-2.8-.47-5.62-2.89-7.37a71.64,71.64,0,0,0-7.1-4.16,3.45,3.45,0,0,0-1.16-.33,37.13,37.13,0,0,0-5.68-.25,12.7,12.7,0,0,0-12,11c-.17,1.65-.09,3.3-.1,5a1.07,1.07,0,0,1-.75,1.16,5.44,5.44,0,0,0-3.4,5.13c-.08,2.7.76,5.17,3.41,6.12,1.94.71,2.57,2.05,3.15,3.66.32.91.64,1.82.88,2.76a5.43,5.43,0,0,0,2.55,3.37q3.15,1.9,6.27,3.87a4,4,0,0,0,4.64,0c2.11-1.33,4.25-2.63,6.38-3.93a5.42,5.42,0,0,0,2.47-3.29,25.31,25.31,0,0,1,1.9-5.08c.16-.31.2-.71.64-.8a6.65,6.65,0,0,0,4.94-4.6v-.49a2.46,2.46,0,0,1,0-1.69ZM129.6,105c-2.36.18-3.09,1.82-3.86,3.58a35.86,35.86,0,0,0-1.81,5,2.17,2.17,0,0,1-1,1.4c-1.86,1.11-3.73,2.23-5.54,3.43a1.17,1.17,0,0,1-1.5-.05c-1.8-1.14-3.6-2.27-5.44-3.36a2.27,2.27,0,0,1-1.09-1.49,35.65,35.65,0,0,0-2.6-6.6,2.67,2.67,0,0,0-2.41-1.68,2.37,2.37,0,0,1-1.87-3.6,1.24,1.24,0,0,1,1.21-.61c2.08-.12,2.61-.69,2.64-2.74,0-2.26-.09-4.53.12-6.77a8.47,8.47,0,0,1,8-7.19c.85,0,1.7,0,2.54,0a5.58,5.58,0,0,1,4.94,2,2.47,2.47,0,0,0,1.59.8,3.63,3.63,0,0,1,3.35,3.52,37.07,37.07,0,0,1,.15,4.52c0,1.28,0,2.36,0,3.45,0,1.59.7,2.43,2.23,2.39s1.74.65,1.86,1.8S130.82,104.94,129.6,105Z"/><path class="cls-5" d="M129.23,101c-1.53,0-2.2-.8-2.23-2.39,0-1.09,0-2.17,0-3.45a37.07,37.07,0,0,0-.15-4.52,3.63,3.63,0,0,0-3.35-3.52,2.47,2.47,0,0,1-1.59-.8,5.58,5.58,0,0,0-4.94-2c-.84,0-1.69,0-2.54,0a8.47,8.47,0,0,0-8,7.19c-.21,2.24-.1,4.51-.12,6.77,0,2-.56,2.62-2.64,2.74a1.24,1.24,0,0,0-1.21.61,2.37,2.37,0,0,0,1.87,3.6,2.67,2.67,0,0,1,2.41,1.68,35.65,35.65,0,0,1,2.6,6.6,2.27,2.27,0,0,0,1.09,1.49c1.84,1.09,3.64,2.22,5.44,3.36a1.17,1.17,0,0,0,1.5.05c1.81-1.2,3.68-2.32,5.54-3.43a2.17,2.17,0,0,0,1-1.4,35.86,35.86,0,0,1,1.81-5c.77-1.76,1.5-3.4,3.86-3.58,1.22-.09,1.61-1,1.49-2.21S130.61,101,129.23,101Z"/><path class="cls-3" d="M120.8,134.15c-.39-1.14-.86-2.25-1.24-3.39a7.56,7.56,0,0,0-4-4.43,97.25,97.25,0,0,0-26.69-9.28c-1.9-.36-2.56-.06-3.29,1.72-1.87,4.53-3.75,9.06-5.58,13.61a1.33,1.33,0,0,1-1.46,1c-3.51-.07-7-.06-10.53,0a1.26,1.26,0,0,1-1.41-.93c-1.86-4.63-3.76-9.23-5.67-13.84-.64-1.55-1.42-2-3-1.64a98.24,98.24,0,0,0-24,7.88c-5.77,2.76-6,3-8.12,9-.81,2.27.28,3.64,2.61,3.63,15-.08,29.94,0,44.9,0h45.15C120.72,137.5,121.55,136.34,120.8,134.15Zm-90.31-.79a4.77,4.77,0,0,1,2.72-3.56,97.37,97.37,0,0,1,23.45-8.38c.43-.09.84-.32,1.09.3,1.56,3.83,3.14,7.65,4.78,11.64Zm53.67,0a7.47,7.47,0,0,1,.77-2.17c1.2-3,2.47-5.94,3.64-8.93.34-.87.71-1,1.59-.79A98.38,98.38,0,0,1,113,129.65a5,5,0,0,1,3,3.7Z"/><path class="cls-6" d="M56.66,121.42a97.37,97.37,0,0,0-23.45,8.38,4.77,4.77,0,0,0-2.72,3.56h32c-1.64-4-3.22-7.81-4.78-11.64C57.5,121.1,57.09,121.33,56.66,121.42Z"/><path class="cls-6" d="M113,129.65a98.38,98.38,0,0,0-22.88-8.19c-.88-.19-1.25-.08-1.59.79-1.17,3-2.44,5.95-3.64,8.93a7.47,7.47,0,0,0-.77,2.17h31.9A5,5,0,0,0,113,129.65Z"/><path class="cls-3" d="M46,97.9c-1.6-.82-1.68-1.85-1.59-3.23,0-.16,0-.33,0-.49,0-.6,0-1.21,0-1.81C44.3,89.7,44,87,41.8,85.21a27.77,27.77,0,0,0-7.73-4.44,16.47,16.47,0,0,0-9.21-.24c-4.65,1-8.66,5.8-9.28,10.52a42.83,42.83,0,0,0-.12,5.19,1,1,0,0,1-.68,1.08,5.48,5.48,0,0,0-3.47,5.21c-.08,2.72.82,5.14,3.45,6.08,1.92.68,2.48,2,3.08,3.57.37,1,.68,2,1,3a5.13,5.13,0,0,0,2.33,3.11l6.58,4.06a3.88,3.88,0,0,0,4.42,0l6.48-4A5.33,5.33,0,0,0,41,115.15a33.83,33.83,0,0,1,1.65-4.65,2.63,2.63,0,0,1,1.72-1.61A5.56,5.56,0,0,0,48.46,104C48.78,101.48,48.29,99.09,46,97.9Zm-2.65,7a1.11,1.11,0,0,1-.45.16c-2.39,0-3.09,1.79-3.86,3.54a30.12,30.12,0,0,0-1.76,4.87A2.49,2.49,0,0,1,36,115.13c-1.77,1.05-3.52,2.12-5.24,3.23a1.27,1.27,0,0,1-1.61,0c-1.75-1.15-3.53-2.24-5.33-3.31a2.41,2.41,0,0,1-1.2-1.55A34.62,34.62,0,0,0,20,106.81a2.52,2.52,0,0,0-2.25-1.54,2.4,2.4,0,0,1-2-3.62,1.23,1.23,0,0,1,1.21-.61c2.08-.12,2.62-.69,2.63-2.74s0-3.87,0-5.81c0-3.2,2.79-7,5.87-7.83a17.89,17.89,0,0,1,7.43,0c.89.14,1.42.88,2,1.46a3.55,3.55,0,0,0,1.86,1,3.57,3.57,0,0,1,3.34,3.64c.11,1.52,0,3.06,0,4.59h.13c0,1.09,0,2.18,0,3.27.05,1.63.73,2.36,2.36,2.4.88,0,1.48.21,1.63,1.18S44.56,104.34,43.32,104.92Z"/><path class="cls-7" d="M42.62,101c-1.63,0-2.31-.77-2.36-2.4,0-1.09,0-2.18,0-3.27h-.13c0-1.53.09-3.07,0-4.59a3.57,3.57,0,0,0-3.34-3.64,3.55,3.55,0,0,1-1.86-1c-.61-.58-1.14-1.32-2-1.46a17.89,17.89,0,0,0-7.43,0c-3.08.84-5.83,4.63-5.87,7.83,0,1.94,0,3.87,0,5.81S19,100.92,16.94,101a1.23,1.23,0,0,0-1.21.61,2.4,2.4,0,0,0,2,3.62A2.52,2.52,0,0,1,20,106.81a34.62,34.62,0,0,1,2.64,6.72,2.41,2.41,0,0,0,1.2,1.55c1.8,1.07,3.58,2.16,5.33,3.31a1.27,1.27,0,0,0,1.61,0c1.72-1.11,3.47-2.18,5.24-3.23a2.49,2.49,0,0,0,1.27-1.64A30.12,30.12,0,0,1,39,108.62c.77-1.75,1.47-3.56,3.86-3.54a1.11,1.11,0,0,0,.45-.16c1.24-.58,1.09-1.62.93-2.7S43.5,101.07,42.62,101Z"/><path class="cls-3" d="M75.35,37.08c0,3.07,0,6.13,0,9.2a1.28,1.28,0,0,0,.8,1.41,4.52,4.52,0,0,1,2.27,2.25,1.38,1.38,0,0,0,1.48.88c4.19,0,8.39,0,12.58,0,1.4,0,2.22.63,2.37,1.74.19,1.43-.75,2.37-2.47,2.38-3.92,0-7.83,0-11.74,0a2.33,2.33,0,0,0-2.48,1.26,5.62,5.62,0,0,1-6.06,2.53,5.89,5.89,0,0,1-4.71-5,5.75,5.75,0,0,1,2.9-5.91,1.58,1.58,0,0,0,.94-1.69c0-5.76,0-11.53,0-17.29,0-.29,0-.57,0-.85.05-1.64.82-2.56,2.12-2.53s2,.91,2,2.5C75.37,31,75.35,34,75.35,37.08Z"/><path class="cls-8" d="M73.25,51.05a1.86,1.86,0,0,1,1.89,1.8,1.92,1.92,0,0,1-1.87,1.84,1.87,1.87,0,0,1-1.8-1.77A1.81,1.81,0,0,1,73.25,51.05Z"/></svg>