<svg id="Capa_1" data-name="Capa 1" xmlns="http://www.w3.org/2000/svg" viewBox="0 0 150 150"><defs><style>.cls-1,.cls-3,.cls-6{fill:#fefefe;}.cls-1{opacity:0.35;}.cls-2,.cls-5{fill:#fff;}.cls-3{opacity:0.25;}.cls-4{fill:#00a3e0;}.cls-5{opacity:0.32;}.cls-6{opacity:0.3;}</style></defs><title>Mesa de trabajo 1</title><path class="cls-1" d="M63.42,33.85c5.55,0,11.11,0,16.67,0s11.19,0,16.79,0c1,0,1.17-.29,1.15-1.19-.06-2.46,0-4.92,0-7.38,0-.77-.17-1-1-1-2.62.06-5.24,0-7.86,0-1.56,0-2-.36-2.53-1.8a6.81,6.81,0,0,0-13,0c-.5,1.48-.93,1.8-2.51,1.8-2.58,0-5.16.05-7.74,0-.94,0-1.09.28-1.07,1.13.06,2.46.07,4.92,0,7.38C62.25,33.73,62.58,33.85,63.42,33.85Z"/><path class="cls-2" d="M126.68,31.38c0-5-2.84-7.79-7.84-7.79-5.36,0-10.73,0-16.09,0-.67,0-1-.08-1-.87,0-1.65-.7-2.24-2.39-2.24-2.78,0-5.56,0-8.34,0a1.35,1.35,0,0,1-1.45-.84,10.6,10.6,0,0,0-19,.07,1.18,1.18,0,0,1-1.26.76c-2.89,0-5.79,0-8.69,0-1.45,0-2.23.68-2.16,2.07,0,1-.38,1-1.16,1-5.4,0-10.81,0-16.21,0a9.46,9.46,0,0,0-1.77.12c-3.58.7-5.76,3.48-5.77,7.36q0,8.64,0,17.28c0,.83-.2,1.1-1.05,1a18.44,18.44,0,0,0-4.74.37C15.84,52,7.34,63,8.51,74.85a23.6,23.6,0,0,0,24,21.63c1,0,1.16.28,1.15,1.17q0,13.29,0,26.58c0,5,2.83,7.82,7.8,7.82h77.46c5,0,7.8-2.85,7.8-7.84q0-23.17,0-46.36T126.68,31.38Zm-64.39-6c0-.85.13-1.15,1.07-1.13,2.58.08,5.16,0,7.74,0,1.58,0,2-.32,2.51-1.8a6.81,6.81,0,0,1,13,0c.48,1.44,1,1.8,2.53,1.8,2.62,0,5.24,0,7.86,0,.8,0,1,.23,1,1,0,2.46,0,4.92,0,7.38,0,.9-.18,1.2-1.15,1.19-5.6-.05-11.2,0-16.79,0s-11.12,0-16.67,0c-.84,0-1.17-.12-1.14-1.07C62.36,30.32,62.35,27.86,62.29,25.4ZM60.73,37.64H99.59a1.93,1.93,0,0,0,2.2-2.2c0-.73.19-.92.93-.91,4,0,8,.06,11.92,0,1,0,1.1.38,1.1,1.21q0,21.11,0,42.2c0,13.94,0,27.89,0,41.83,0,1.2-.34,1.37-1.43,1.37q-34.22,0-68.42,0c-1.19,0-1.39-.34-1.38-1.44q.06-12.89,0-25.75a1.73,1.73,0,0,1,.84-1.65,23.5,23.5,0,0,0,0-38.74A1.64,1.64,0,0,1,44.54,52q0-8.22,0-16.45c0-.86.26-1,1.07-1,4,0,7.95,0,11.92,0,.73,0,1,.13,1,.95C58.49,37,59.23,37.64,60.73,37.64Zm-23.27-7a3.09,3.09,0,0,1,3.38-3.2c5.59,0,11.19,0,16.79,0,.78,0,.88.26.88.95,0,2.4,0,2.4-2.39,2.4H43.38c-2.06,0-2.64.56-2.64,2.59,0,5.44,0,10.88,0,16.32V51c-1-.31-1.86-.61-2.73-.83-.5-.13-.59-.4-.59-.85C37.44,43.08,37.41,36.85,37.46,30.61Zm-20,29A19.72,19.72,0,0,1,48.08,84.32a25.1,25.1,0,0,0-1.8-3.5,16.49,16.49,0,0,0-6.7-5.91c-.89-.42-1-.63-.3-1.4A9.33,9.33,0,0,0,40.46,63a9.52,9.52,0,0,0-9.6-5.05,9.42,9.42,0,0,0-7.94,6.63,9.31,9.31,0,0,0,2,9.22c.33.38.72.59-.08,1A16.85,16.85,0,0,0,16,84.25C11.36,78.58,10.19,67.54,17.47,59.58Zm20.29,7.76a5.74,5.74,0,1,1-11.47,0,5.74,5.74,0,0,1,11.47,0ZM19.89,88.54a1.54,1.54,0,0,1-.64-1.9,13.24,13.24,0,0,1,25.56.16,1.34,1.34,0,0,1-.53,1.62A19.8,19.8,0,0,1,19.89,88.54Zm99.17,39.7H41.22c-2.57,0-3.78-1.2-3.79-3.79,0-9.22,0-18.43,0-27.65a1,1,0,0,1,.93-1.21c.77-.18,1.51-.45,2.27-.68a2.62,2.62,0,0,1,.12,1.32q0,12.93,0,25.86c0,2.3.52,2.82,2.78,2.82h73.3c2.19,0,2.72-.54,2.72-2.75V33.49c0-2.23-.52-2.76-2.7-2.76-4.65,0-9.3,0-14,0-.92,0-1.11-.24-1.09-1.11,0-2.24,0-2.24,2.2-2.24h15.14c2.48,0,3.73,1.25,3.73,3.74v93.32C122.87,127,121.62,128.24,119.06,128.24Z"/><path class="cls-1" d="M119.14,27.4H104c-2.19,0-2.15,0-2.2,2.24,0,.87.17,1.13,1.09,1.11,4.65-.05,9.3,0,14,0,2.18,0,2.7.53,2.7,2.76v88.67c0,2.21-.53,2.75-2.72,2.75H43.52c-2.26,0-2.78-.52-2.78-2.82q0-12.93,0-25.86a2.62,2.62,0,0,0-.12-1.32c-.76.23-1.5.5-2.27.68a1,1,0,0,0-.93,1.21c0,9.22,0,18.43,0,27.65,0,2.59,1.22,3.79,3.79,3.79h77.84c2.56,0,3.81-1.23,3.81-3.78V31.14C122.87,28.65,121.62,27.41,119.14,27.4Z"/><path class="cls-1" d="M38,50.16c.87.22,1.73.52,2.73.83V49.64c0-5.44,0-10.88,0-16.32,0-2,.58-2.59,2.64-2.59H56.12c2.41,0,2.38,0,2.39-2.4,0-.69-.1-1-.88-.95-5.6,0-11.2,0-16.79,0a3.09,3.09,0,0,0-3.38,3.2c-.05,6.24,0,12.47,0,18.7C37.42,49.76,37.51,50,38,50.16Z"/><path class="cls-3" d="M44.81,86.8a13.24,13.24,0,0,0-25.56-.16,1.54,1.54,0,0,0,.64,1.9,19.8,19.8,0,0,0,24.39-.12A1.34,1.34,0,0,0,44.81,86.8Z"/><path class="cls-3" d="M48.08,84.32A19.72,19.72,0,0,0,17.47,59.58c-7.28,8-6.11,19-1.46,24.67a16.85,16.85,0,0,1,8.82-9.54c.8-.37.41-.58.08-1a9.31,9.31,0,0,1-2-9.22,9.42,9.42,0,0,1,7.94-6.63A9.52,9.52,0,0,1,40.46,63a9.33,9.33,0,0,1-1.18,10.56c-.66.77-.59,1,.3,1.4a16.49,16.49,0,0,1,6.7,5.91A25.1,25.1,0,0,1,48.08,84.32Z"/><path class="cls-3" d="M32.07,61.66a5.68,5.68,0,0,0-5.78,5.69,5.74,5.74,0,1,0,5.78-5.69Z"/><path class="cls-3" d="M115.73,77.92q0-21.11,0-42.2c0-.83-.07-1.23-1.1-1.21-4,.08-8,.05-11.92,0-.74,0-.92.18-.93.91a1.93,1.93,0,0,1-2.2,2.2H60.73c-1.5,0-2.24-.69-2.21-2.16,0-.82-.27-1-1-.95-4,0-8,0-11.92,0-.81,0-1.07.16-1.07,1q.06,8.24,0,16.45a1.64,1.64,0,0,0,.81,1.55,23.5,23.5,0,0,1,0,38.74,1.73,1.73,0,0,0-.84,1.65q0,12.87,0,25.75c0,1.1.19,1.44,1.38,1.44q34.22-.07,68.42,0c1.09,0,1.43-.17,1.43-1.37C115.71,105.81,115.73,91.86,115.73,77.92Z"/><path class="cls-2" d="M109.69,98.4a3.59,3.59,0,0,0-3.86-3.87c-2.07,0-4.13,0-6.2,0s-4.13,0-6.19,0a3.59,3.59,0,0,0-3.87,3.86c0,4.13,0,8.26,0,12.39a3.65,3.65,0,0,0,3.92,3.85q6.14,0,12.27,0a3.68,3.68,0,0,0,3.94-4Q109.73,104.54,109.69,98.4Zm-3.8,6.25c0,1.79,0,3.57,0,5.36,0,.61-.15.83-.79.82q-5.49,0-11,0c-.66,0-.79-.23-.79-.83,0-3.61,0-7.22,0-10.84,0-.73.29-.84.91-.83,3.58,0,7.15,0,10.72,0,.77,0,.93.27.91,1C105.86,101.08,105.89,102.86,105.89,104.65Z"/><path class="cls-4" d="M105,98.32c-3.57,0-7.14,0-10.72,0-.62,0-.92.1-.91.83,0,3.62,0,7.23,0,10.84,0,.6.13.84.79.83q5.47,0,11,0c.64,0,.8-.21.79-.82,0-1.79,0-3.57,0-5.36s0-3.57,0-5.36C105.92,98.59,105.76,98.31,105,98.32Z"/><path class="cls-2" d="M109.69,45.14a3.57,3.57,0,0,0-3.8-3.7q-6.26,0-12.51,0a3.57,3.57,0,0,0-3.81,3.68c0,4.25,0,8.5,0,12.75A3.53,3.53,0,0,0,93.3,61.5c2.11,0,4.21,0,6.32,0s4.13,0,6.19,0a3.6,3.6,0,0,0,3.88-3.74Q109.75,51.46,109.69,45.14ZM105.9,56.83c0,.65-.15.89-.85.88q-5.42,0-10.83,0c-.69,0-.87-.2-.86-.87,0-3.57,0-7.15,0-10.72,0-.8.3-.9,1-.88,1.78,0,3.57,0,5.35,0s3.58,0,5.36,0c.69,0,.87.21.86.88Q105.86,51.47,105.9,56.83Z"/><path class="cls-4" d="M105,45.23c-1.78.05-3.57,0-5.36,0s-3.57,0-5.35,0c-.68,0-1,.08-1,.88.05,3.57,0,7.15,0,10.72,0,.67.17.88.86.87q5.41,0,10.83,0c.7,0,.86-.23.85-.88q0-5.37,0-10.72C105.91,45.44,105.73,45.22,105,45.23Z"/><path class="cls-2" d="M109.69,72.18a3.59,3.59,0,0,0-3.83-3.79q-6.26,0-12.51,0a3.57,3.57,0,0,0-3.78,3.71q-.06,6.32,0,12.63a3.58,3.58,0,0,0,3.88,3.73c2.07,0,4.13,0,6.2,0s4.13,0,6.19,0a3.57,3.57,0,0,0,3.85-3.76Q109.75,78.44,109.69,72.18Zm-3.79,11.6c0,.67-.17.88-.86.88q-5.42,0-10.83,0c-.7,0-.86-.24-.85-.89q0-5.35,0-10.71c0-.67.17-.89.86-.88,1.82,0,3.65,0,5.48,0s3.49,0,5.23,0c.67,0,1,.07,1,.88C105.86,76.64,105.87,80.21,105.9,83.78Z"/><path class="cls-4" d="M104.93,72.19c-1.74,0-3.49,0-5.23,0s-3.66,0-5.48,0c-.69,0-.87.21-.86.88q0,5.35,0,10.71c0,.65.15.9.85.89q5.42,0,10.83,0c.69,0,.87-.21.86-.88,0-3.57,0-7.14,0-10.71C105.92,72.26,105.6,72.17,104.93,72.19Z"/><path class="cls-2" d="M67,107.29H80.67a2.38,2.38,0,0,1,1.87.59,1.79,1.79,0,0,1,.46,1.86,1.77,1.77,0,0,1-1.52,1.33,7.61,7.61,0,0,1-1.07,0q-13.57,0-27.14,0c-.24,0-.48,0-.71,0a1.9,1.9,0,1,1,0-3.8c1.3,0,2.62,0,3.92,0Z"/><path class="cls-2" d="M66.79,58H53.22a3.76,3.76,0,0,1-1.51-.19A1.74,1.74,0,0,1,50.63,56a1.72,1.72,0,0,1,1.31-1.65,5.56,5.56,0,0,1,1.53-.14H80.84c1.43,0,2.24.75,2.24,1.91S82.26,58,80.83,58C76.15,58,71.47,58,66.79,58Z"/><path class="cls-2" d="M69.46,85H58.76a5.08,5.08,0,0,1-1.41-.13,1.72,1.72,0,0,1-1.28-1.91,1.71,1.71,0,0,1,1.41-1.68,6.27,6.27,0,0,1,1.3-.08q10.77,0,21.53,0a5.62,5.62,0,0,1,1.3.08,1.86,1.86,0,0,1,.09,3.61,5,5,0,0,1-1.29.11Z"/><path class="cls-2" d="M70.77,48.72c-3.41,0-6.82,0-10.23,0a1.89,1.89,0,0,1-2-1.89,1.94,1.94,0,0,1,1.91-1.89,9.55,9.55,0,0,1,1.07,0H77.1c1.23,0,2.46,0,3.69,0,1.5,0,2.32.77,2.28,2s-.84,1.81-2.3,1.82Z"/><path class="cls-2" d="M71.33,71.88c3.17,0,6.35,0,9.52,0,1.48,0,2.3.8,2.22,2s-.86,1.77-2.25,1.77c-3.48,0-7,0-10.46,0H61.67a2,2,0,0,1-2-1.18,1.78,1.78,0,0,1,.25-1.89,2.23,2.23,0,0,1,2-.75Z"/><path class="cls-2" d="M71.62,101.81H62.46c-1.53,0-2.36-.68-2.36-1.89S60.94,98,62.44,98q9.16,0,18.33,0c1.49,0,2.33.75,2.31,2s-.84,1.84-2.29,1.84Z"/><path class="cls-2" d="M80.13,20.56a2.31,2.31,0,0,1,0,4.62,2.31,2.31,0,0,1,0-4.62Z"/><path class="cls-2" d="M98.71,104.41c1.05-1.29,1.86-2.32,2.7-3.32a1.89,1.89,0,0,1,2.8-.53c1,.73,1,1.82.15,2.92q-1.8,2.3-3.66,4.54a1.94,1.94,0,0,1-3.24.16c-.86-.82-1.7-1.66-2.52-2.53A1.89,1.89,0,1,1,97.59,103,10.67,10.67,0,0,1,98.71,104.41Z"/><path class="cls-2" d="M98.87,55.85a1.61,1.61,0,0,1-.72-.21A20.9,20.9,0,0,1,94.55,52a1.63,1.63,0,0,1,.36-2.26,1.84,1.84,0,0,1,2.2-.27,3.13,3.13,0,0,1,.3.2c.58.35.87,1.41,1.57,1.17s.94-1,1.39-1.58.88-1.14,1.38-1.64a1.75,1.75,0,0,1,2.48-.13,1.66,1.66,0,0,1,.44,2.43c-1.38,1.84-2.87,3.6-4.33,5.38A1.77,1.77,0,0,1,98.87,55.85Z"/><path class="cls-2" d="M96.32,76.22c.86-.06,1.38.66,1.93,1.26s.74.54,1.16,0c.65-.9,1.37-1.75,2.1-2.59a1.93,1.93,0,0,1,2.74-.41,1.86,1.86,0,0,1,.22,2.76q-1.89,2.44-3.89,4.81a1.88,1.88,0,0,1-3,.15c-1-.9-1.88-1.83-2.77-2.79a1.73,1.73,0,0,1-.32-2.09A1.83,1.83,0,0,1,96.32,76.22Z"/><circle class="cls-5" cx="33.89" cy="72.13" r="18.84"/><path class="cls-6" d="M117.05,75.6q0-21.09,0-42.19c0-.83-.07-1.23-1.1-1.21-4,.08-7.95,0-11.92,0-.73,0-.91.18-.92.92a1.94,1.94,0,0,1-2.21,2.2H62.06c-1.51,0-2.25-.69-2.22-2.16,0-.83-.27-1-1-1q-6,0-11.92,0c-.81,0-1.07.17-1.07,1q.06,8.22,0,16.45a1.63,1.63,0,0,0,.81,1.54A23.51,23.51,0,0,1,46.7,90a1.75,1.75,0,0,0-.84,1.65c0,8.58,0,17.16,0,25.74,0,1.11.19,1.45,1.39,1.45q34.2-.07,68.41,0c1.09,0,1.44-.17,1.43-1.37C117,103.49,117.05,89.55,117.05,75.6Z"/></svg>