<svg id="Capa_1" data-name="Capa 1" xmlns="http://www.w3.org/2000/svg" viewBox="0 0 150 150"><defs><style>.cls-1,.cls-4{fill:#fff;}.cls-2{fill:#00a3e0;}.cls-3,.cls-5{fill:none;stroke:#fff;}.cls-3{stroke-width:4px;}.cls-4{opacity:0.45;}.cls-5{stroke-width:3px;}</style></defs><title>Mesa de trabajo 1</title><path class="cls-1" d="M131.43,34.69a8.13,8.13,0,0,0-.55-3.7,9.42,9.42,0,0,0-8.42-5.59c-2.07-.08-4.14,0-6.22,0a1.56,1.56,0,0,1-1.69-1.25c-.73-2.36-2.2-3.91-4.8-4.07-3.6-.23-5.76.29-7.16,4.23a1.56,1.56,0,0,1-1.7,1.09H82.13a1.59,1.59,0,0,1-1.72-1.34c-.74-2.28-2.18-3.81-4.76-4-3.39-.22-5.9.12-7.26,4.36-.28.86-.94.95-1.67.95H48.06a1.64,1.64,0,0,1-1.78-1.3c-.82-2.38-2.35-4-5.06-4.06-3.28-.12-5.58.27-6.89,4.28a1.46,1.46,0,0,1-1.6,1.07c-2.11,0-4.22,0-6.33,0a8.89,8.89,0,0,0-5,1.66,8.15,8.15,0,0,0-3.82,6.42V35.9c.66,1.85,2,2.35,3.31,1.25a2.5,2.5,0,0,0,1-1.8,7.24,7.24,0,0,1,.43-2,5,5,0,0,1,5.36-3.17c1.74-.06,3.48,0,5.22,0,.88,0,1.27.36,1.31,1.25a3.37,3.37,0,0,1-1.08,2.78c-2.56,2.45-3.14,5.55-2.52,8.88a10,10,0,0,0,11.27,7.77c6.26-.88,10.33-8.06,7.68-13.8a10,10,0,0,0-2.28-3.25,2.78,2.78,0,0,1-.59-3c.3-1,1.32-.61,2-.62,4.14,0,8.29,0,12.43,0,1.89,0,3.78,0,5.67,0,1.09,0,1.28.24,1.35,1.29a3.18,3.18,0,0,1-.93,2.61,9.59,9.59,0,0,0-2.78,7.27,10,10,0,1,0,19.1-4.48,12.56,12.56,0,0,0-2.26-3.27,2.8,2.8,0,0,1-.4-2.84c.26-.88,1.19-.58,1.84-.58,5.89,0,11.78,0,17.66,0,1.88,0,2.65,1.41,1.71,3.08a4.23,4.23,0,0,1-.64.76,9.61,9.61,0,0,0-2.14,10.67A9.85,9.85,0,0,0,108.69,51,9.71,9.71,0,0,0,116,47.64a10.23,10.23,0,0,0,1.26-11.58,16.26,16.26,0,0,0-2-2.39,2.85,2.85,0,0,1-.41-2.94c.29-.84,1.22-.5,1.88-.52,1.59-.06,3.18,0,4.77,0a4.92,4.92,0,0,1,4.2,1.81,6.56,6.56,0,0,1,1.28,4.6q0,43.29,0,86.6c0,.48,0,1,0,1.44a5.28,5.28,0,0,1-6,4.84,13.54,13.54,0,0,1-2.11.08H28.59a7.27,7.27,0,0,1-2.41-.19,5,5,0,0,1-4.12-4,10.28,10.28,0,0,1-.15-2.54V53c0-.77,0-1.55,0-2.33a2.41,2.41,0,0,0-2-2.52c-1.14-.17-1.69.28-2.24,1.77v76.19a8.6,8.6,0,0,0,4.11,6.71c1.12.79,2.44.74,3.67,1.07h98c.19-.16.42-.1.64-.12a7,7,0,0,0,4.07-1.54,8.92,8.92,0,0,0,3.41-7.35Q131.42,79.78,131.43,34.69ZM43.78,45.51a5.75,5.75,0,0,1-6.82,0A5.42,5.42,0,0,1,35,39.34c2,4.15,7.77,5.16,10.68.12A5.37,5.37,0,0,1,43.78,45.51Zm34.52-.34a5.72,5.72,0,0,1-6.87.6,5.46,5.46,0,0,1-2.31-6.35c2.57,4.59,8.17,4.55,10.64.1C80.61,41.17,80,43.65,78.3,45.17Zm34.08,0a5.72,5.72,0,0,1-6.79.6,5.58,5.58,0,0,1-2.38-6.45c2.61,4.77,8.33,4.54,10.67.11A5.11,5.11,0,0,1,112.38,45.2Z"/><path class="cls-1" d="M17.6,42.34c.15-.21.27-.44.43-.64a1.88,1.88,0,1,1,2.76,2.53,1.83,1.83,0,0,1-2.73-.16,7.11,7.11,0,0,1-.46-.62Z"/><path class="cls-2" d="M76.4,31.45c0,1.55,0,3.11,0,4.66a8.29,8.29,0,0,1,0,1c-.13,1.24-.8,1.92-1.87,1.93a1.84,1.84,0,0,1-1.91-1.89c-.06-.66,0-1.33,0-2v-8.1c0-.3,0-.6,0-.89.08-1.4.83-2.26,2-2.23s1.84.84,1.88,2.19c0,1.77,0,3.55,0,5.33Z"/><path class="cls-2" d="M38.47,31.46c0-1.78,0-3.56,0-5.33,0-1.33.73-2.17,1.84-2.2s1.93.86,1.94,2.22q0,5.34,0,10.66c0,1.43-.73,2.24-1.91,2.23s-1.86-.8-1.87-2.25C38.46,35,38.47,33.23,38.47,31.46Z"/><path class="cls-2" d="M110.47,31.48c0,1.81,0,3.62,0,5.44,0,1.35-.72,2.12-1.88,2.12s-1.88-.79-1.89-2.14q0-5.43,0-10.88a1.94,1.94,0,0,1,2-2.09,1.91,1.91,0,0,1,1.81,2.1C110.48,27.85,110.47,29.66,110.47,31.48Z"/><line class="cls-3" x1="26.5" y1="72.55" x2="121.84" y2="72.55"/><line class="cls-3" x1="26.06" y1="89.95" x2="121.4" y2="89.95"/><line class="cls-3" x1="26.94" y1="107.34" x2="122.28" y2="107.34"/><rect class="cls-4" x="24.21" y="31.91" width="100.5" height="91.28" rx="5.84"/><g id="bars"><rect class="cls-1" x="41.03" y="89.07" width="16.73" height="34.79"/><rect class="cls-1" x="68.12" y="77.19" width="16.73" height="46.07"/><rect class="cls-1" x="95.2" y="67.92" width="16.73" height="55.49"/></g><rect class="cls-5" x="26.06" y="54.72" width="96.22" height="70.02" rx="6.19"/></svg>