<svg id="Capa_1" data-name="Capa 1" xmlns="http://www.w3.org/2000/svg" viewBox="0 0 150 150"><defs><style>.cls-1,.cls-3,.cls-5,.cls-8{fill:#fefefe;}.cls-1{opacity:0.63;}.cls-2{fill:none;}.cls-3{opacity:0.44;}.cls-4{fill:#fff;}.cls-5{opacity:0.65;}.cls-6,.cls-7{fill:#00a3e0;}.cls-7{opacity:0.34;}</style></defs><title>Mesa de trabajo 1</title><path class="cls-1" d="M89,63.53a2.39,2.39,0,0,0-.68-1.71A27.79,27.79,0,0,1,83,52.89,28.19,28.19,0,0,1,82.12,36c.18-.7.1-1-.73-.94-1.93.06-3.87,0-5.8,0a1.17,1.17,0,0,0-1.08.46A3.64,3.64,0,0,1,71.45,37q-9.61,0-19.23,0a3.54,3.54,0,0,1-2.92-1.27,1.7,1.7,0,0,0-1.55-.65c-4,0-8,0-12,0-1,0-1.22.26-1.22,1.25q.06,20.25,0,40.51t0,40.74c0,.82.15,1.09,1,1.09q26.17,0,52.35,0c.88,0,1-.25,1-1.08Q89,90.55,89,63.53Z"/><path class="cls-2" d="M30.25,35.64c-1.07,0-1.28.27-1.28,1.3Q29,58.12,29,79.31t0,42.6c0,.86.16,1.14,1.09,1.14q27.36,0,54.74,0c.93,0,1.09-.26,1.09-1.12q0-28.28,0-56.53a2.52,2.52,0,0,0-.71-1.79,28.86,28.86,0,0,1-5.54-9.33,29.41,29.41,0,0,1-1-17.65c.19-.73.1-1-.76-1-2,.06-4,0-6.07,0a1.21,1.21,0,0,0-1.12.47,3.82,3.82,0,0,1-3.2,1.54H47.42a3.72,3.72,0,0,1-3.06-1.33,1.75,1.75,0,0,0-1.61-.68C38.58,35.68,34.41,35.71,30.25,35.64Z"/><path class="cls-2" d="M94,71.25a.75.75,0,0,0-.4-.79c-1.17-.71-2.33-1.44-3.66-2.27v1.49q0,26.37,0,52.73c0,3.06-1.57,4.67-4.57,4.67q-27.9,0-55.82,0c-2.93,0-4.6-1.65-4.6-4.55q0-43.2,0-86.41c0-2.87,1.64-4.5,4.5-4.51,3.61,0,7.22,0,10.83,0,.95,0,2.2.31,2.75-.17s.09-1.87.23-2.83-.28-1.08-1.12-1.07c-6.66,0-13.33,0-20,0-1,0-1.29.24-1.29,1.28q.06,50.52,0,101.05c0,1,.16,1.31,1.26,1.31q35.34-.06,70.7,0c1,0,1.2-.29,1.2-1.25q0-29,0-58.08A5.76,5.76,0,0,1,94,71.25Z"/><path class="cls-2" d="M30.25,35.64c-1.07,0-1.28.27-1.28,1.3Q29,58.12,29,79.31t0,42.6c0,.86.16,1.14,1.09,1.14q27.36,0,54.74,0c.93,0,1.09-.26,1.09-1.12q0-28.28,0-56.53a2.52,2.52,0,0,0-.71-1.79,28.86,28.86,0,0,1-5.54-9.33,29.41,29.41,0,0,1-1-17.65c.19-.73.1-1-.76-1-2,.06-4,0-6.07,0a1.21,1.21,0,0,0-1.12.47,3.82,3.82,0,0,1-3.2,1.54H47.42a3.72,3.72,0,0,1-3.06-1.33,1.75,1.75,0,0,0-1.61-.68C38.58,35.68,34.41,35.71,30.25,35.64Z"/><path class="cls-3" d="M111.26,15.67c-13.93,0-25.37,11.22-25.36,24.87S97.33,65.4,111.27,65.4s25.37-11.2,25.37-24.87S125.21,15.66,111.26,15.67Z"/><path class="cls-4" d="M138.19,38.09a30.43,30.43,0,0,0-35.76-24.17,29.56,29.56,0,0,0-16,8.71,2,2,0,0,1-1.57.88c-4.32,0-8.64,0-13,0-.35,0-.73.08-1-.27a4.47,4.47,0,0,0-4.4-1.78c-.82.07-1-.31-1.06-1a7.39,7.39,0,0,0-1.27-3.53,8.1,8.1,0,0,0-8.73-3.36,7.91,7.91,0,0,0-6,6.89c-.06.87-.41,1-1.17,1a4.4,4.4,0,0,0-3.9,1.32,2,2,0,0,1-1.72.76c-7.06,0-14.12,0-21.18,0a4.79,4.79,0,0,0-3.22,1c-.67.53-.89,1.36-1.45,2V132.1a3.55,3.55,0,0,0,3.1,3.09h75a5.56,5.56,0,0,0,2.42-1.73,5.23,5.23,0,0,0,.73-3.18q0-28.26,0-56.52c0-1.21.32-1.26,1.3-.92a26,26,0,0,0,7.57,1.36A30.54,30.54,0,0,0,138.19,38.09ZM44.36,36.34a3.72,3.72,0,0,0,3.06,1.33H67.53a3.82,3.82,0,0,0,3.2-1.54,1.21,1.21,0,0,1,1.12-.47c2,0,4.05.05,6.07,0,.86,0,1,.25.76,1a29.41,29.41,0,0,0,1,17.65,28.86,28.86,0,0,0,5.54,9.33,2.52,2.52,0,0,1,.71,1.79q0,28.26,0,56.53c0,.86-.16,1.12-1.09,1.12q-27.37,0-54.74,0c-.93,0-1.09-.28-1.09-1.14q0-21.3,0-42.6t0-42.37c0-1,.21-1.32,1.28-1.3,4.16.07,8.33,0,12.5,0A1.75,1.75,0,0,1,44.36,36.34Zm48.46,94.83q-35.35-.06-70.7,0c-1.1,0-1.26-.31-1.26-1.31q0-50.52,0-101.05c0-1,.25-1.29,1.29-1.28,6.66,0,13.33,0,20,0,.84,0,1.26.11,1.12,1.07s.42,2.26-.23,2.83-1.8.17-2.75.17c-3.61,0-7.22,0-10.83,0-2.86,0-4.5,1.64-4.5,4.51q0,43.2,0,86.41c0,2.9,1.67,4.55,4.6,4.55q27.92,0,55.82,0c3,0,4.57-1.61,4.57-4.67q0-26.35,0-52.73V68.19c1.33.83,2.49,1.56,3.66,2.27a.75.75,0,0,1,.4.79,5.76,5.76,0,0,0,0,.59q0,29,0,58.08C94,130.88,93.84,131.17,92.82,131.17Zm15.43-61a26.41,26.41,0,1,1,26.4-26.41A26.49,26.49,0,0,1,108.25,70.19Z"/><path class="cls-5" d="M94,71.25a.75.75,0,0,0-.4-.79c-1.17-.71-2.33-1.44-3.66-2.27v1.49q0,26.37,0,52.73c0,3.06-1.57,4.67-4.57,4.67q-27.9,0-55.82,0c-2.93,0-4.6-1.65-4.6-4.55q0-43.2,0-86.41c0-2.87,1.64-4.5,4.5-4.51,3.61,0,7.22,0,10.83,0,.95,0,2.2.31,2.75-.17s.09-1.87.23-2.83-.28-1.08-1.12-1.07c-6.66,0-13.33,0-20,0-1,0-1.29.24-1.29,1.28q.06,50.52,0,101.05c0,1,.16,1.31,1.26,1.31q35.34-.06,70.7,0c1,0,1.2-.29,1.2-1.25q0-29,0-58.08A5.76,5.76,0,0,1,94,71.25Z"/><path class="cls-6" d="M57.41,33.61c-3.06,0-6.11,0-9.16,0-.79,0-1-.21-1-1,0-2.1,0-4.21,0-6.31,0-.66.15-.91.85-.87,1.07.06,2.14,0,3.21,0,1.88,0,2.66-1,2.26-2.84-.55-2.5.55-4.49,2.81-5.11a3.94,3.94,0,0,1,5,4.65c-.6,2.17.51,3.56,2.7,3.32.94-.1,1.9,0,2.85,0,.52,0,.69.18.69.69,0,2.26,0,4.52,0,6.78,0,.79-.45.67-.92.67Z"/><path class="cls-7" d="M82.41,27.55c-.69,1.33-1.3,2.47-1.87,3.63-.2.4-.48.44-.86.44-2.42,0-4.84,0-7.25,0-.67,0-.77-.26-.79-.84-.1-3.24-.11-3.24,3.12-3.24Z"/><path class="cls-4" d="M57.61,41.77A18.27,18.27,0,1,1,39.2,59.55,18.26,18.26,0,0,1,57.61,41.77Z"/><path class="cls-4" d="M65.54,106.76c-3.2,0-6.41,0-9.62,0-1.63,0-2.52-.77-2.48-2.06a1.81,1.81,0,0,1,1.49-1.88,6.7,6.7,0,0,1,1.42-.12H74.76c2,0,3,.7,3,2.08s-1,2-2.94,2Z"/><path class="cls-4" d="M49.34,98.61c-3.09,0-6.18,0-9.27,0a7.15,7.15,0,0,1-1.31-.08,2,2,0,0,1-.23-3.8,5.15,5.15,0,0,1,1.52-.18H58.59c.24,0,.48,0,.72,0a2.15,2.15,0,0,1,2.2,2,2.06,2.06,0,0,1-2.31,2C55.91,98.63,52.62,98.61,49.34,98.61Z"/><path class="cls-4" d="M49.44,110.85c3.33,0,6.66,0,10,0a2,2,0,0,1,2.08,1.87,2,2,0,0,1-1.83,2.11,6.62,6.62,0,0,1-1.18.06H39.83a2.93,2.93,0,0,1-1.81-.44,1.86,1.86,0,0,1-.74-2.19,1.91,1.91,0,0,1,2.06-1.43h10.1Z"/><path class="cls-4" d="M43.24,106.76c-1.23,0-2.45,0-3.68,0-1.51,0-2.42-.84-2.4-2a2.08,2.08,0,0,1,2.32-2q3.75-.06,7.48,0c1.46,0,2.3.8,2.32,2s-.83,2-2.36,2.08H43.24Z"/><path class="cls-4" d="M57.45,90.48c-1.31,0-2.62,0-3.92,0a2,2,0,1,1-.17-4q4.1-.1,8.19,0a1.93,1.93,0,0,1,2,2.11,2,2,0,0,1-2.13,1.9C60.06,90.51,58.75,90.48,57.45,90.48Z"/><path class="cls-4" d="M71.71,110.83c1.27,0,2.54,0,3.8,0a2,2,0,1,1,.1,4q-3.92.09-7.84,0a2,2,0,0,1-2.16-2c0-1.22.84-2,2.3-2C69.18,110.81,70.44,110.83,71.71,110.83Z"/><path class="cls-4" d="M71.59,98.61c-1.27,0-2.53,0-3.8,0a2,2,0,1,1-.13-4q4-.1,8.07,0a2,2,0,1,1-.1,4c-1.35,0-2.69,0-4,0Z"/><path class="cls-4" d="M122.44,29.61a3.53,3.53,0,0,1-.54,1.46q-7.83,13.7-15.65,27.41c-1,1.75-2.17,2-3.79.78l-7.22-5.42c-1.29-1-1.57-2.11-.8-3.14s1.94-1.05,3.24-.09c1.66,1.22,3.34,2.42,4.94,3.71.73.59,1,.55,1.51-.29q7-12.33,14.06-24.63a6.7,6.7,0,0,1,.78-1.18,1.82,1.82,0,0,1,2.15-.51A2,2,0,0,1,122.44,29.61Z"/><path class="cls-6" d="M47.45,70a14.08,14.08,0,0,1-.21-19.8A14.17,14.17,0,1,1,67.55,69.94a12.42,12.42,0,0,0-1.48-3.58,10.84,10.84,0,0,0-2.82-2.65A9.05,9.05,0,0,0,65.49,59a8.09,8.09,0,0,0-15.67-3.64A7.79,7.79,0,0,0,51.15,63c.33.42.55.69,0,1.1A8.61,8.61,0,0,0,47.45,70Z"/><path class="cls-6" d="M57.11,74.25a14.68,14.68,0,0,1-5-1.06,1,1,0,0,1-.78-1.12,5.4,5.4,0,0,1,2.88-5.21,6.76,6.76,0,0,1,6.8.26c2.05,1.14,2.71,3,2.54,5.22,0,.51-.31.65-.69.81A14.52,14.52,0,0,1,57.11,74.25Z"/><path class="cls-8" d="M53.42,58a4,4,0,0,1,4-4.07A4.08,4.08,0,0,1,61.53,58a4.15,4.15,0,0,1-4,4A4.07,4.07,0,0,1,53.42,58Z"/></svg>