<svg id="Capa_1" data-name="Capa 1" xmlns="http://www.w3.org/2000/svg" viewBox="0 0 150 150"><defs><style>.cls-1,.cls-3,.cls-5,.cls-8{fill:#fefefe;}.cls-1{opacity:0.63;}.cls-2{fill:none;}.cls-3{opacity:0.44;}.cls-4{fill:#fff;}.cls-5{opacity:0.65;}.cls-6,.cls-7{fill:#00a3e0;}.cls-7{opacity:0.34;}</style></defs><title>Mesa de trabajo 1</title><path class="cls-1" d="M87.87,67.21a1.87,1.87,0,0,0-.53-1.33A21.49,21.49,0,0,1,83.23,59a21.85,21.85,0,0,1-.72-13.09c.14-.54.08-.75-.56-.73-1.5,0-3,0-4.5,0a.9.9,0,0,0-.84.35,2.81,2.81,0,0,1-2.37,1.13H59.32a2.73,2.73,0,0,1-2.27-1,1.3,1.3,0,0,0-1.2-.51c-3.09,0-6.18,0-9.27,0-.79,0-.95.2-.95,1q0,15.72,0,31.44t0,31.61c0,.63.12.84.81.84q20.29,0,40.61,0c.69,0,.81-.2.81-.83Q87.84,88.18,87.87,67.21Z"/><path class="cls-2" d="M42.27,45.57c-.82,0-1,.21-1,1q0,16.44,0,32.87t0,33.05c0,.67.13.89.85.88q21.24,0,42.47,0c.72,0,.85-.2.84-.87q0-21.93,0-43.85a1.92,1.92,0,0,0-.55-1.39A22.61,22.61,0,0,1,80.59,60a22.87,22.87,0,0,1-.74-13.69c.14-.57.08-.79-.59-.76-1.57.05-3.14,0-4.71,0a.93.93,0,0,0-.87.36,3,3,0,0,1-2.49,1.19H55.59a2.89,2.89,0,0,1-2.37-1A1.34,1.34,0,0,0,52,45.59C48.74,45.6,45.5,45.63,42.27,45.57Z"/><path class="cls-2" d="M91.73,73.2a.58.58,0,0,0-.31-.61l-2.84-1.76v42.06c0,2.37-1.22,3.62-3.55,3.62H41.72A3.23,3.23,0,0,1,38.15,113v-67a3.18,3.18,0,0,1,3.49-3.49h8.41c.73,0,1.71.25,2.13-.13s.07-1.45.18-2.2-.22-.83-.87-.83c-5.17,0-10.34,0-15.51,0-.81,0-1,.18-1,1q0,39.21,0,78.4c0,.77.12,1,1,1q27.43,0,54.85,0c.8,0,.94-.22.93-1q0-22.53,0-45.06C91.73,73.5,91.72,73.35,91.73,73.2Z"/><path class="cls-2" d="M42.27,45.57c-.82,0-1,.21-1,1q0,16.44,0,32.87t0,33.05c0,.67.13.89.85.88q21.24,0,42.47,0c.72,0,.85-.2.84-.87q0-21.93,0-43.85a1.92,1.92,0,0,0-.55-1.39A22.61,22.61,0,0,1,80.59,60a22.87,22.87,0,0,1-.74-13.69c.14-.57.08-.79-.59-.76-1.57.05-3.14,0-4.71,0a.93.93,0,0,0-.87.36,3,3,0,0,1-2.49,1.19H55.59a2.89,2.89,0,0,1-2.37-1A1.34,1.34,0,0,0,52,45.59C48.74,45.6,45.5,45.63,42.27,45.57Z"/><path class="cls-3" d="M105.12,30.08a19.57,19.57,0,0,0-19.68,19.3,19.69,19.69,0,0,0,39.37,0A19.54,19.54,0,0,0,105.12,30.08Z"/><path class="cls-4" d="M126,47.47A23.6,23.6,0,0,0,98.27,28.72a23,23,0,0,0-12.42,6.76,1.57,1.57,0,0,1-1.22.68c-3.35,0-6.7,0-10.06,0-.27,0-.57.05-.75-.22a3.48,3.48,0,0,0-3.42-1.37c-.63,0-.78-.24-.82-.77a5.65,5.65,0,0,0-1-2.74,6.27,6.27,0,0,0-6.77-2.61,6.16,6.16,0,0,0-4.65,5.34c0,.68-.31.81-.9.77a3.38,3.38,0,0,0-3,1,1.53,1.53,0,0,1-1.34.59c-5.48,0-10.95,0-16.43,0a3.79,3.79,0,0,0-2.5.74c-.52.41-.69,1.06-1.13,1.52v82a2.76,2.76,0,0,0,2.4,2.4H92.44a4.35,4.35,0,0,0,1.88-1.35,4.08,4.08,0,0,0,.56-2.46q0-21.93,0-43.85c0-.94.25-1,1-.72a20.54,20.54,0,0,0,5.87,1.06A23.7,23.7,0,0,0,126,47.47ZM53.22,46.12a2.89,2.89,0,0,0,2.37,1h15.6A3,3,0,0,0,73.68,46a.93.93,0,0,1,.87-.36c1.57,0,3.14,0,4.71,0,.67,0,.73.19.59.76A22.87,22.87,0,0,0,80.59,60a22.61,22.61,0,0,0,4.3,7.24,1.92,1.92,0,0,1,.55,1.39q0,21.93,0,43.85c0,.67-.12.88-.84.87q-21.24,0-42.47,0c-.72,0-.85-.21-.85-.88q0-16.52,0-33t0-32.87c0-.8.17-1,1-1,3.23.06,6.47,0,9.7,0A1.34,1.34,0,0,1,53.22,46.12Zm37.59,73.56q-27.42,0-54.85,0c-.85,0-1-.24-1-1q0-39.19,0-78.4c0-.81.19-1,1-1,5.17,0,10.34,0,15.51,0,.65,0,1,.09.87.83s.33,1.76-.18,2.2-1.4.13-2.13.13H41.64a3.18,3.18,0,0,0-3.49,3.49v67a3.23,3.23,0,0,0,3.57,3.53H85c2.33,0,3.55-1.25,3.55-3.62V70.83l2.84,1.76a.58.58,0,0,1,.31.61c0,.15,0,.3,0,.46q0,22.53,0,45.06C91.75,119.46,91.61,119.68,90.81,119.68Zm12-47.3a20.49,20.49,0,1,1,20.49-20.5A20.55,20.55,0,0,1,102.78,72.38Z"/><path class="cls-5" d="M91.73,73.2a.58.58,0,0,0-.31-.61l-2.84-1.76v42.06c0,2.37-1.22,3.62-3.55,3.62H41.72A3.23,3.23,0,0,1,38.15,113v-67a3.18,3.18,0,0,1,3.49-3.49h8.41c.73,0,1.71.25,2.13-.13s.07-1.45.18-2.2-.22-.83-.87-.83c-5.17,0-10.34,0-15.51,0-.81,0-1,.18-1,1q0,39.21,0,78.4c0,.77.12,1,1,1q27.43,0,54.85,0c.8,0,.94-.22.93-1q0-22.53,0-45.06C91.73,73.5,91.72,73.35,91.73,73.2Z"/><path class="cls-6" d="M63.34,44c-2.37,0-4.74,0-7.11,0-.61,0-.76-.16-.75-.76,0-1.63,0-3.26,0-4.89,0-.51.12-.71.66-.68.83,0,1.66,0,2.49,0,1.46,0,2.07-.79,1.76-2.21a3.11,3.11,0,1,1,6-.35c-.46,1.68.4,2.76,2.09,2.57.73-.07,1.48,0,2.22,0,.4,0,.53.14.53.53,0,1.76,0,3.51,0,5.27,0,.61-.35.52-.72.52Z"/><path class="cls-7" d="M82.74,39.3c-.53,1-1,1.91-1.45,2.81-.15.31-.38.34-.67.34-1.87,0-3.75,0-5.63,0-.51,0-.59-.2-.6-.65-.08-2.51-.09-2.51,2.42-2.51Z"/><path class="cls-4" d="M63.5,50.33A14.17,14.17,0,1,1,49.21,64.12,14.14,14.14,0,0,1,63.5,50.33Z"/><path class="cls-4" d="M69.65,100.75c-2.48,0-5,0-7.46,0-1.27,0-2-.6-1.93-1.6a1.41,1.41,0,0,1,1.16-1.45,4.51,4.51,0,0,1,1.1-.1H76.81c1.56,0,2.34.55,2.32,1.61s-.77,1.56-2.29,1.56Z"/><path class="cls-4" d="M57.08,94.43H49.89a5.65,5.65,0,0,1-1-.06,1.53,1.53,0,0,1-.18-3,4.19,4.19,0,0,1,1.18-.13H64.26a5,5,0,0,1,.55,0,1.66,1.66,0,0,1,1.71,1.58c0,.91-.68,1.55-1.79,1.56C62.18,94.44,59.63,94.43,57.08,94.43Z"/><path class="cls-4" d="M57.16,103.92c2.58,0,5.16,0,7.75,0a1.53,1.53,0,0,1,1.61,1.45A1.58,1.58,0,0,1,65.1,107a4.69,4.69,0,0,1-.92,0H49.7a2.3,2.3,0,0,1-1.4-.34,1.44,1.44,0,0,1-.58-1.7,1.49,1.49,0,0,1,1.6-1.11c2.61,0,5.23,0,7.84,0Z"/><path class="cls-4" d="M52.35,100.75c-1,0-1.9,0-2.85,0-1.17,0-1.88-.65-1.87-1.59a1.61,1.61,0,0,1,1.8-1.56c1.94,0,3.87,0,5.81,0,1.13,0,1.78.62,1.8,1.55s-.64,1.55-1.83,1.61H52.35Z"/><path class="cls-4" d="M63.37,88.12c-1,0-2,0-3,0A1.56,1.56,0,1,1,60.2,85q3.18-.09,6.36,0a1.49,1.49,0,0,1,1.51,1.63,1.51,1.51,0,0,1-1.66,1.48C65.4,88.14,64.39,88.12,63.37,88.12Z"/><path class="cls-4" d="M74.44,103.91c1,0,2,0,3,0a1.57,1.57,0,1,1,.08,3.14q-3,.08-6.08,0a1.56,1.56,0,0,1-1.68-1.58c0-1,.65-1.53,1.78-1.56S73.46,103.91,74.44,103.91Z"/><path class="cls-4" d="M74.35,94.43c-1,0-2,0-2.95,0a1.56,1.56,0,1,1-.1-3.12q3.12-.09,6.26,0a1.56,1.56,0,1,1-.08,3.11c-1,0-2.09,0-3.13,0Z"/><path class="cls-4" d="M113.79,40.89a2.77,2.77,0,0,1-.41,1.14L101.23,63.29c-.78,1.36-1.68,1.54-2.93.6-1.88-1.39-3.74-2.79-5.61-4.2-1-.76-1.22-1.63-.61-2.43s1.5-.82,2.51-.08c1.28,1,2.59,1.88,3.83,2.88.56.46.81.43,1.17-.22Q105,50.27,110.5,40.73a5.2,5.2,0,0,1,.6-.92,1.43,1.43,0,0,1,1.67-.4A1.54,1.54,0,0,1,113.79,40.89Z"/><path class="cls-6" d="M55.61,72.22a10.94,10.94,0,0,1-.16-15.37A11,11,0,1,1,71.21,72.18a9.33,9.33,0,0,0-1.15-2.78,8.55,8.55,0,0,0-2.18-2.05,7,7,0,0,0,1.73-3.68,6.27,6.27,0,0,0-12.16-2.82,6.07,6.07,0,0,0,1,6c.25.32.42.53,0,.85A6.74,6.74,0,0,0,55.61,72.22Z"/><path class="cls-6" d="M63.11,75.52a11.26,11.26,0,0,1-3.88-.82.79.79,0,0,1-.6-.87,4.19,4.19,0,0,1,2.23-4,5.28,5.28,0,0,1,5.28.2,3.86,3.86,0,0,1,2,4.05c0,.4-.23.51-.53.63A11.23,11.23,0,0,1,63.11,75.52Z"/><path class="cls-8" d="M60.25,63a3.1,3.1,0,0,1,3.12-3.16A3.14,3.14,0,1,1,60.25,63Z"/></svg>